# xmcd CD database file
#
# Track frame offsets:
#	150
#	10460
#	23915
#	39264
#	51651
#	68151
#	80355
#	93689
#	109515
#
# Disc length: 1647 seconds
#
# Revision: 0
# Processed by: cddbd v1.5.2PL0 Copyright (c) Steve Scherf et al.
# Submitted via: CDex 1.70beta2
#
DISCID=70066d09
DTITLE=Clint Black - Killin' Time
DYEAR=1900
DGENRE=Country
TTITLE0=Straight From The Factory
TTITLE1=A Better Man
TTITLE2=Nobody's Home
TTITLE3=Walkin' Away
TTITLE4=You're Gonna leave Me Again
TTITLE5=Killin' Time
TTITLE6=Nothing's News
TTITLE7=Winding Down
TTITLE8=Live And learn
EXTD=
EXTT0=
EXTT1=
EXTT2=
EXTT3=
EXTT4=
EXTT5=
EXTT6=
EXTT7=
EXTT8=
PLAYORDER=
